<svg width="202" height="48" viewBox="0 0 202 48" fill="none" xmlns="http://www.w3.org/2000/svg">
<path d="M57.5418 10.7832H59.4802V14.206H62.8672V16.1479H59.4802V26.7552C59.4722 27.264 59.5664 27.7692 59.7572 28.2409C59.948 28.7127 60.2316 29.1413 60.5911 29.5016C61.3548 30.2548 62.1135 30.631 62.8672 30.63V32.5688C61.5749 32.5688 60.3645 31.9984 59.236 30.8574C58.6883 30.3259 58.2554 29.6877 57.964 28.9824C57.6726 28.2772 57.5289 27.5197 57.5418 26.7567V10.7832Z" fill="#333333"/>
<path d="M68.06 30.0624C66.2151 28.2315 65.2931 26.0119 65.2941 23.4036C65.2744 22.1665 65.5097 20.9385 65.9856 19.7963C66.4615 18.654 67.1676 17.622 68.06 16.7644C69.8919 14.9225 72.1122 14.001 74.7208 14C77.2128 14.0103 79.5998 15.0044 81.3618 16.7657C83.1238 18.5271 84.118 20.9129 84.128 23.4036C84.128 26.0149 83.2055 28.2345 81.3605 30.0624C80.5024 30.9541 79.4698 31.6597 78.3269 32.1353C77.1841 32.6109 75.9556 32.8463 74.7178 32.8268C72.1112 32.8268 69.8919 31.9053 68.06 30.0624ZM69.4332 18.1188C68.0553 19.526 67.2879 21.4194 67.2977 23.3884C67.3074 25.3574 68.0933 27.2431 69.4851 28.6367C70.8768 30.0303 72.7621 30.8193 74.7321 30.8327C76.7021 30.846 78.598 30.0826 80.0085 28.708C81.3864 27.3008 82.1537 25.4074 82.144 23.4384C82.1343 21.4695 81.3483 19.5837 79.9566 18.1901C78.5649 16.7965 76.6796 16.0075 74.7096 15.9942C72.7396 15.9808 70.8437 16.7442 69.4332 18.1188Z" fill="#333333"/>
<path d="M103.061 32.5685H100.67L93.9718 23.0338L90.1327 26.8889V32.5685H88.1973V5.51758H90.1357V24.0989L100.072 14.2056H102.838L95.3826 21.6161L103.061 32.5685Z" fill="#333333"/>
<path d="M113.636 13.9805C114.898 13.9771 116.148 14.2335 117.306 14.7338C119.563 15.686 121.359 17.4811 122.312 19.7369C122.812 20.8947 123.068 22.1427 123.066 23.4037V23.5544H106.241C106.249 24.5279 106.461 25.489 106.862 26.3761C107.243 27.2415 107.786 28.0263 108.461 28.6885C109.131 29.3496 109.924 29.8736 110.795 30.2312C111.692 30.6186 112.659 30.817 113.636 30.8142C115.014 30.8222 116.365 30.4376 117.532 29.7054C118.667 28.9977 119.59 27.9968 120.203 26.8084L122.048 27.6174C121.284 29.1579 120.105 30.4553 118.645 31.3641C117.152 32.3222 115.413 32.8252 113.639 32.8119C112.385 32.8144 111.144 32.5655 109.988 32.0797C107.715 31.1357 105.908 29.3296 104.964 27.057C104.236 25.3341 104.038 23.4332 104.397 21.5974C104.755 19.7615 105.653 18.0742 106.975 16.751C107.841 15.8928 108.865 15.2095 109.99 14.7383C111.14 14.2385 112.381 13.9805 113.636 13.9805ZM120.806 21.5417C120.394 19.9545 119.466 18.549 118.169 17.5456C116.871 16.5423 115.277 15.9978 113.636 15.9977C111.981 15.9803 110.371 16.539 109.082 17.578C107.795 18.5744 106.875 19.9703 106.467 21.5462L120.806 21.5417Z" fill="#333333"/>
<path d="M142.034 32.5692H140.095V21.4663C140.106 20.7379 139.968 20.015 139.689 19.3416C139.411 18.6683 138.999 18.0585 138.478 17.5493C137.974 17.0279 137.368 16.6154 136.697 16.3371C136.027 16.0588 135.307 15.9207 134.582 15.9313C133.855 15.9308 133.135 16.0734 132.464 16.351C131.792 16.6286 131.182 17.0359 130.669 17.5494C130.155 18.0629 129.747 18.6727 129.47 19.3437C129.192 20.0148 129.049 20.734 129.05 21.4602V32.5692H127.111V14.2064H129.047V16.3517C130.49 14.7969 132.334 14.0131 134.579 14C136.553 14.017 138.441 14.8096 139.836 16.2067C141.23 17.6037 142.018 19.493 142.031 21.4663L142.034 32.5692Z" fill="#333333"/>
<path d="M147.453 3.64453H151.292V32.5695H147.453V3.64453Z" fill="#333333"/>
<path d="M165.498 32.8263C162.651 32.8263 160.211 31.8169 158.178 29.7982C156.145 27.7795 155.135 25.3384 155.149 22.4751C155.149 19.6177 156.158 17.1726 158.178 15.1399C160.21 13.1221 162.65 12.1133 165.498 12.1133C168.371 12.1133 170.554 12.859 172.047 14.3505V12.3634H175.867V32.5687H172.047V30.5876C170.555 32.0801 168.372 32.8263 165.498 32.8263ZM165.498 15.9368C163.781 15.9629 162.143 16.6629 160.937 17.8858C159.732 19.1087 159.057 20.7563 159.057 22.4728C159.057 24.1893 159.732 25.8369 160.937 27.0598C162.143 28.2827 163.781 28.9827 165.498 29.0088C166.36 29.022 167.215 28.8585 168.012 28.5284C168.808 28.1983 169.528 27.7086 170.128 27.0895C171.035 26.1728 171.651 25.0087 171.899 23.7435C172.146 22.4782 172.014 21.1681 171.52 19.9773C171.025 18.7866 170.19 17.7684 169.119 17.0504C168.047 16.3324 166.788 15.9466 165.498 15.9413V15.9368Z" fill="#333333"/>
<path d="M201.999 22.4638C201.999 25.3091 200.989 27.7482 198.97 29.781C196.95 31.8138 194.51 32.8291 191.65 32.8271C188.777 32.8271 186.594 32.0739 185.101 30.5674V32.5695H181.281V3.64453H185.101V14.3408C186.594 12.8473 188.777 12.1011 191.65 12.1021C194.497 12.1021 196.937 13.1114 198.97 15.1302C201.002 17.1489 202.012 19.5934 201.999 22.4638ZM198.18 22.5015C198.143 20.7878 197.436 19.1567 196.21 17.9577C194.985 16.7587 193.338 16.0872 191.623 16.0872C189.908 16.0872 188.261 16.7587 187.035 17.9577C185.81 19.1567 185.103 20.7878 185.066 22.5015C185.103 24.2152 185.81 25.8464 187.035 27.0454C188.261 28.2444 189.908 28.9158 191.623 28.9158C193.338 28.9158 194.985 28.2444 196.21 27.0454C197.436 25.8464 198.143 24.2152 198.18 22.5015Z" fill="#333333"/>
<path d="M47.4406 30.9346L41.4702 6.62558C40.9202 4.38549 39.5025 2.45542 37.529 1.25983C35.5554 0.0642392 33.1876 -0.298985 30.9461 0.250036L7.48633 6.00339L23.9386 15.6179C24.5949 16.0011 25.1692 16.5097 25.6287 17.1148C26.0882 17.7199 26.4238 18.4095 26.6165 19.1444C26.8091 19.8792 26.8549 20.6448 26.7513 21.3973C26.6477 22.1498 26.3967 22.8746 26.0127 23.5301L12.1198 47.2757C13.6184 47.7413 15.2156 47.7898 16.7397 47.4158L41.0617 41.4576C42.172 41.1856 43.2179 40.6976 44.1395 40.0215C45.0611 39.3454 45.8403 38.4944 46.4327 37.5171C47.0251 36.5399 47.4191 35.4556 47.592 34.3261C47.7649 33.1966 47.7135 32.0442 47.4406 30.9346Z" fill="#4F86C6"/>
<path d="M0.250945 16.7319L6.21688 41.0424C6.54677 42.3802 7.19172 43.6198 8.098 44.6581L20.4173 23.5986C20.6904 23.1318 20.8688 22.6158 20.9423 22.0801C21.0159 21.5444 20.9832 20.9994 20.846 20.4763C20.7088 19.9533 20.4699 19.4623 20.1429 19.0316C19.8159 18.6008 19.4072 18.2386 18.9401 17.9657L2.63099 8.43555C1.54497 9.49097 0.753963 10.8119 0.336462 12.2672C-0.0810389 13.7225 -0.110519 15.2617 0.250945 16.7319Z" fill="#424041"/>
</svg>
