<svg width="199" height="105" viewBox="0 0 199 105" fill="none" xmlns="http://www.w3.org/2000/svg">
<path d="M0.00109582 74.332H2.67134V79.0637H7.337V81.7482H2.67134V96.4119C2.66028 97.1152 2.79002 97.8136 3.05288 98.4658C3.31574 99.1179 3.70638 99.7105 4.20165 100.209C5.25369 101.25 6.29881 101.77 7.337 101.768V104.449C5.55684 104.449 3.88949 103.66 2.33496 102.083C1.58046 101.348 0.984105 100.466 0.582699 99.4909C0.181294 98.5159 -0.0166495 97.4687 0.00109582 96.414V74.332Z" fill="white"/>
<path d="M14.4914 100.986C11.9499 98.455 10.6799 95.3866 10.6813 91.7809C10.6541 90.0707 10.9783 88.3731 11.6338 86.7941C12.2893 85.215 13.2621 83.7883 14.4914 82.6029C17.0149 80.0565 20.0734 78.7826 23.667 78.7812C27.0998 78.7955 30.3879 80.1698 32.8152 82.6046C35.2424 85.0395 36.612 88.3378 36.6256 91.7809C36.6256 95.3908 35.3549 98.4592 32.8134 100.986C31.6313 102.219 30.2088 103.194 28.6345 103.852C27.0602 104.509 25.3679 104.835 23.6628 104.808C20.072 104.808 17.0149 103.534 14.4914 100.986ZM16.383 84.4751C14.4849 86.4205 13.4279 89.038 13.4412 91.7599C13.4546 94.4818 14.5373 97.0887 16.4545 99.0152C18.3717 100.942 20.9687 102.032 23.6825 102.051C26.3962 102.069 29.0078 101.014 30.9509 99.1138C32.849 97.1685 33.906 94.551 33.8927 91.829C33.8793 89.1071 32.7966 86.5002 30.8794 84.5737C28.9622 82.6472 26.3652 81.5565 23.6514 81.538C20.9377 81.5195 18.3261 82.5749 16.383 84.4751Z" fill="white"/>
<path d="M62.7077 104.45H59.4145L50.1871 91.2693L44.8985 96.5987V104.45H42.2324V67.0547H44.9027V92.7417L58.5902 79.0651H62.4004L52.1306 89.3095L62.7077 104.45Z" fill="white"/>
<path d="M77.2759 78.75C79.0147 78.7454 80.7357 79.0999 82.3319 79.7914C85.441 81.1077 87.9151 83.5893 89.2276 86.7077C89.9161 88.3083 90.2695 90.0336 90.2658 91.7768V91.985H67.0892C67.1002 93.3309 67.3915 94.6596 67.9447 95.8858C68.4697 97.0822 69.2174 98.1672 70.1477 99.0826C71.0706 99.9964 72.1624 100.721 73.3619 101.215C74.5975 101.751 75.9299 102.025 77.2759 102.021C79.1739 102.032 81.0358 101.5 82.6434 100.488C84.2069 99.5099 85.478 98.1263 86.3227 96.4835L88.8642 97.6019C87.8111 99.7315 86.1877 101.525 84.1757 102.781C82.1197 104.106 79.7236 104.801 77.2801 104.783C75.5531 104.786 73.843 104.442 72.2511 103.771C69.1192 102.466 66.6307 99.9688 65.3305 96.8271C64.3272 94.4453 64.0548 91.8175 64.5482 89.2797C65.0416 86.7418 66.2784 84.4092 68.1004 82.58C69.2936 81.3936 70.7036 80.449 72.2531 79.7976C73.8381 79.1067 75.5478 78.7501 77.2759 78.75ZM87.1533 89.2027C86.5854 87.0085 85.3074 85.0655 83.5198 83.6785C81.7321 82.2914 79.536 81.5388 77.2759 81.5387C74.9956 81.5145 72.7779 82.2869 71.0032 83.7233C69.2292 85.1007 67.962 87.0304 67.4006 89.2089L87.1533 89.2027Z" fill="white"/>
<path d="M116.392 104.452H113.722V89.1027C113.736 88.0958 113.546 87.0965 113.163 86.1656C112.78 85.2347 112.212 84.3917 111.494 83.6879C110.799 82.9671 109.964 82.3968 109.041 82.0121C108.118 81.6274 107.126 81.4365 106.126 81.4512C105.126 81.4503 104.134 81.6475 103.209 82.0313C102.284 82.4151 101.444 82.9781 100.736 83.688C100.028 84.3979 99.4672 85.2408 99.0845 86.1685C98.7019 87.0961 98.5053 88.0904 98.5062 89.0944V104.452H95.8359V79.0666H98.502V82.0322C100.49 79.883 103.03 78.7993 106.122 78.7812C108.842 78.8047 111.443 79.9005 113.364 81.8318C115.285 83.7631 116.371 86.3748 116.388 89.1027L116.392 104.452Z" fill="white"/>
<path d="M123.861 64.4609H129.15V104.447H123.861V64.4609Z" fill="white"/>
<path d="M148.718 104.806C144.796 104.806 141.435 103.41 138.635 100.62C135.834 97.829 134.443 94.4545 134.461 90.4961C134.461 86.5461 135.852 83.166 138.635 80.3558C141.434 77.5665 144.795 76.1719 148.718 76.1719C152.675 76.1719 155.682 77.2028 157.739 79.2646V76.5176H163.001V104.45H157.739V101.711C155.684 103.774 152.677 104.806 148.718 104.806ZM148.718 81.4576C146.352 81.4936 144.096 82.4614 142.436 84.1519C140.775 85.8425 139.845 88.1201 139.845 90.493C139.845 92.8658 140.775 95.1435 142.436 96.834C144.096 98.5246 146.352 99.4924 148.718 99.5284C149.905 99.5466 151.084 99.3206 152.181 98.8642C153.278 98.4079 154.27 97.7309 155.096 96.8751C156.346 95.6078 157.194 93.9987 157.535 92.2496C157.876 90.5005 157.695 88.6893 157.013 87.0432C156.332 85.3972 155.181 83.9896 153.706 82.997C152.23 82.0044 150.494 81.471 148.718 81.4638V81.4576Z" fill="white"/>
<path d="M199.001 90.477C199.001 94.4103 197.61 97.7821 194.827 100.592C192.045 103.402 188.684 104.806 184.744 104.803C180.787 104.803 177.779 103.762 175.722 101.679V104.447H170.461V64.4609H175.722V79.2475C177.779 77.1829 180.787 76.1514 184.744 76.1527C188.666 76.1527 192.027 77.5481 194.827 80.3388C197.628 83.1295 199.019 86.5089 199.001 90.477ZM193.739 90.529C193.689 88.16 192.715 85.9051 191.026 84.2476C189.338 82.5901 187.069 81.6618 184.707 81.6618C182.344 81.6618 180.076 82.5901 178.388 84.2476C176.699 85.9051 175.725 88.16 175.675 90.529C175.725 92.8981 176.699 95.153 178.388 96.8105C180.076 98.468 182.344 99.3962 184.707 99.3962C187.069 99.3962 189.338 98.468 191.026 96.8105C192.715 95.153 193.689 92.8981 193.739 90.529Z" fill="white"/>
<path d="M129.82 42.7644L121.595 9.15928C120.838 6.06255 118.885 3.3944 116.166 1.7416C113.448 0.0888049 110.186 -0.413321 107.098 0.345652L74.7812 8.29916L97.445 21.5904C98.349 22.12 99.1401 22.8232 99.7731 23.6597C100.406 24.4962 100.868 25.4496 101.134 26.4654C101.399 27.4812 101.462 28.5396 101.32 29.5799C101.177 30.6202 100.831 31.6221 100.302 32.5283L81.164 65.3545C83.2284 65.9982 85.4287 66.0651 87.5282 65.5482L121.033 57.3114C122.562 56.9355 124.003 56.2608 125.272 55.3262C126.542 54.3915 127.615 53.2151 128.431 51.8641C129.248 50.5132 129.79 49.0142 130.028 47.4528C130.267 45.8914 130.196 44.2983 129.82 42.7644Z" fill="white"/>
<path d="M64.8105 23.1291L73.0288 56.7363C73.4833 58.5857 74.3717 60.2994 75.6202 61.7346L92.5904 32.6217C92.9666 31.9764 93.2124 31.2631 93.3138 30.5225C93.4151 29.782 93.37 29.0286 93.181 28.3055C92.9921 27.5824 92.663 26.9037 92.2125 26.3082C91.762 25.7127 91.199 25.212 90.5556 24.8348L68.0891 11.6602C66.5931 13.1192 65.5035 14.9452 64.9283 16.9571C64.3532 18.9689 64.3126 21.0967 64.8105 23.1291Z" fill="white"/>
</svg>
